<?xml version="1.0" encoding="UTF-8"?>
<svg version="1.1" viewBox="0 0 900 900" width="1280" height="1280" xmlns="http://www.w3.org/2000/svg">
<path transform="translate(0)" d="m0 0h900v900h-900z" fill="#FED10B"/>
<path transform="translate(495,70)" d="m0 0 20 1 25 4 24 7 21 9 17 10 16 12 13 12 9 9 11 14 7 10 9 15 10 21 8 24 5 24 2 16v25l-6-1-11-7-5-3-2-1 1 13v18l-4 27-7 25-9 21-11 20-10 14-9 11-20 20-3 1-1-1v-36l-16 4-27 8-25 8-33 10-29 9-18 6 8 17 7 12-2 2-34 2-32 3-55 5-35 4-14 4-17 9-10 7-5-1-4-3v-2h-2l-11-14-9-15-8-18-5-17-3-15-3-6-9-7-15-9-13-4-8 1-12 5-10 6-7 3-7-1-15-9-4-3-4-1 1 22-4-1-11-11-7-10-5-10v-11l6-7 19-14 15-9 23-12 7-2h20l18 4 28 9-3-7-6-23-9-27-11-23-8-12-8-10-7-7-6-2-29-5-9-4-4-4-7-15-2-5h-3l-7 12-2 4-3-1-4-17v-23l3-6 5-4 9-2 16-1h21l23 2 13 4 10 6 14 14 26 34 9 12 14 18 10 13 14 18 5 1 10-6 15-7 17-5 11-2 12-1h25l29 2 38 3h31l13-3 12-6 11-9 6-9 6-14 1-6v-15l-3-20-4-10-4-5-2-1 2 8v21l-5 15-6 10-9 10-13 8-9 4-5 1-1-2 8-14 1-3-10 5-18 5-6 1h-9l-27-2-19 1-21 5-13 4h-5l4-4 11-8 11-9 3-3v-16l61-1 10-4 5-6 2-5v-10l-5-12-1-1-79-1-2-5-6-32v-6l22-9 46-18 30-12 8-3h25l6-19z" fill="#1F0539"/>
<path transform="translate(873,468)" d="m0 0h3l-1 5-12 27-13 23-10 15-11 13-6 7-14 11-14 7-21 5-30 4-21 2-51 2-78 2-21 1-19 3-26 8-29 12-27 14-18 10-19 12-21 14-14 10-15 11-14 11-16 13-11 9-12 11-8 7-10 9-8 7-13 8-30 13-28 11-11 4-4-2-22-18-14-12-10-8-13-11-4-3v-2l23-7 43-13 26-9 11-6 13-10 11-8 20-14 15-10 20-13 21-13 26-14 23-10 24-8 44-11 52-10 45-7 51-7 64-8 27-4 15-4 21-9 23-11 42-23 24-14 18-11 10-8z" fill="#1F0539"/>
<path transform="translate(794,629)" d="m0 0h10l-2 2-32 7-40 9-52 12-29 8-42 12-25 9-17 7-19 11-16 11-19 14-16 13-13 10-11 10-10 8-15 13-13 11-11 10-11 9-9 8-8 7-12 10-14 9-24 8-30 8-14-11-10-9-14-11-10-9-10-8-8-6-1-3 9-4 27-9 20-8 14-7 36-27 17-12 16-11 27-18 19-12 22-13 24-13 25-12 22-8 25-6 34-6 32-4 32-3 47-3 25-1 49-1z" fill="#1F0539"/>
<path transform="translate(491,519)" d="m0 0 43 1 58 4 51 5 6 1v1l-48 1-47 2-49 4-40 5-23 4-25 6-18 6-23 11-19 12-13 9-16 12-14 11-11 10-11 9-12 11-10 9-14 11-10 7-21 10-29 11-20 6-15 3-27 3h-14l-11-9-13-11-14-11-11-10-10-8-13-11-2-3 66-3 27-3 18-4 16-7 17-9 27-18 19-14 13-10 18-13 18-12 15-5 24-5 54-8 56-7 30-3z" fill="#1F0539"/>
<path transform="translate(552,128)" d="m0 0 8 4 9 7 15 14 12 15 10 18 6 15 5 19 2 11v24l-4 17-5 12-7 12-9 11-9 8-16 9-16 6-20 4-13 1h-12l1-4 17-10 11-8 13-12 9-9 11-16 8-16 5-15 2-12v-28l-3-16-5-16-6-15-8-13-8-11-3-3z" fill="#FED10B"/>
<path transform="translate(351,313)" d="m0 0h34l17 3 16 5 16 7 1 3-31 2-20 4-14 5-16 8-12 9-12 11-9 12-7 12-6 15-5 19-3 18-1 24-4-4-9-17-5-15-2-14v-16l3-16 5-13 6-10 9-12 11-11 7-5v-3l-5-5-2-4 6-4 16-5z" fill="#FED10B"/>
<path transform="translate(436,375)" d="m0 0h20l25 3-1 3-15 4-18 5-16 8-9 7-7 8-5 10-2 7-1 12-5-1-11-7-5 2-17 12-13 9h-3l2-13 3-12 5-12 7-11 9-10 12-9 17-9 12-4z" fill="#FED10B"/>
<path transform="translate(269,168)" d="m0 0 6 3 8 6 6 2 8 1h66l3 11 2 11v6l-2 1h-67l-10-1-5-3-6-8-6-14-3-11z" fill="#1F0539"/>
<path transform="translate(465,109)" d="m0 0h24l15 4 7 3-1 3-20 9-10 3h-7l-7-4-3-8 1-9z" fill="#FED10B"/>
</svg>
